<?xml version="1.0" encoding="utf-8"?><!-- Uploaded to: SVG Repo, www.svgrepo.com, Generator: SVG Repo Mixer Tools -->
<svg fill="#000000" width="800px" height="800px" viewBox="0 0 24 24" id="bench" data-name="Flat Line" xmlns="http://www.w3.org/2000/svg" class="icon flat-line"><path id="secondary" d="M21,17H3V14a1,1,0,0,1,1-1H20a1,1,0,0,1,1,1Z" style="fill: rgb(44, 169, 188); stroke-width: 2;"></path><path id="primary" d="M6,9v4M18,9v4M5,17v4m14-4v4M5,9H19a1,1,0,0,0,1-1V4a1,1,0,0,0-1-1H5A1,1,0,0,0,4,4V8A1,1,0,0,0,5,9Zm16,5a1,1,0,0,0-1-1H4a1,1,0,0,0-1,1v3H21Z" style="fill: none; stroke: rgb(0, 0, 0); stroke-linecap: round; stroke-linejoin: round; stroke-width: 2;"></path></svg>